<svg width="24" height="24" viewBox="0 0 24 24" fill="none" xmlns="http://www.w3.org/2000/svg">
<path d="M12.5007 5.56233C12.5007 6.00305 12.5007 6.44377 12.5007 6.89785C12.7693 6.88235 12.7693 6.88235 13.0433 6.86654C14.6998 6.87532 16.1845 7.41896 17.5089 8.40029C17.6217 8.51844 17.7344 8.63658 17.8506 8.7583C18.3095 9.19428 18.7294 9.18762 19.3452 9.23499C19.533 9.86101 19.533 9.86101 19.3452 10.2366C14.4973 10.2366 9.64943 10.2366 4.65462 10.2366C4.48768 9.56887 4.48768 9.56887 4.65462 9.23499C4.82334 9.22466 4.99205 9.21433 5.16587 9.20369C5.76296 9.13802 6.03655 8.9234 6.47008 8.51506C7.68217 7.37538 9.27359 6.88279 10.9253 6.87698C11.1146 6.88386 11.304 6.89075 11.4991 6.89785C11.4991 6.45713 11.4991 6.01641 11.4991 5.56233C11.9149 5.35442 12.0685 5.43266 12.5007 5.56233ZM7.65952 9.23499C10.5242 9.23499 13.3889 9.23499 16.3403 9.23499C15.1619 8.05658 13.5856 7.9947 11.9999 7.98295C10.4143 7.9947 8.83793 8.05658 7.65952 9.23499Z" fill="black"/>
<path d="M5.99016 10.9044C6.3207 10.9044 6.65124 10.9044 6.99179 10.9044C6.99423 11.0467 6.99666 11.189 6.99917 11.3356C7.00939 11.8661 7.02178 12.3965 7.03561 12.927C7.04114 13.156 7.04582 13.3852 7.04963 13.6143C7.05526 13.9446 7.06425 14.2749 7.07331 14.6051C7.07768 14.8036 7.08205 15.002 7.08655 15.2065C7.16504 15.7927 7.29869 16.1149 7.65955 16.5803C8.12895 16.7368 8.42266 16.77 8.9089 16.7742C9.13542 16.7766 9.13542 16.7766 9.36651 16.779C9.61066 16.7801 9.61066 16.7801 9.85975 16.7812C10.0275 16.7821 10.1953 16.7831 10.3681 16.7841C10.7231 16.7856 11.0782 16.7867 11.4332 16.7874C11.9758 16.789 12.5183 16.7942 13.0609 16.7994C13.4059 16.8005 13.7509 16.8014 14.0958 16.8021C14.2579 16.8041 14.42 16.8062 14.587 16.8083C15.7164 16.8091 15.7164 16.8091 16.6742 16.2465C16.8615 15.6846 16.8759 15.2297 16.894 14.6377C16.901 14.4209 16.908 14.2041 16.9152 13.9807C16.9218 13.7517 16.9285 13.5227 16.9351 13.2937C16.9423 13.0628 16.9496 12.8318 16.9569 12.6009C16.9747 12.0354 16.9917 11.4699 17.0081 10.9044C17.3387 10.9044 17.6692 10.9044 18.0098 10.9044C18.0098 11.1248 18.0098 11.3451 18.0098 11.5722C18.4505 11.5722 18.8912 11.5722 19.3453 11.5722C19.5331 12.1982 19.5331 12.1982 19.3453 12.5738C18.9045 12.5738 18.4638 12.5738 18.0098 12.5738C18.015 12.748 18.015 12.748 18.0204 12.9257C18.0343 13.4553 18.0429 13.9848 18.0515 14.5145C18.0571 14.6972 18.0627 14.8799 18.0684 15.0681C18.0812 16.1206 18.084 16.801 17.342 17.582C16.8063 17.9187 16.3834 17.9594 15.7562 17.9643C15.5723 17.9665 15.3884 17.9686 15.1989 17.9708C15.001 17.9712 14.8031 17.9715 14.5992 17.9719C14.3951 17.973 14.1909 17.9742 13.9805 17.9753C13.5486 17.977 13.1167 17.9778 12.6847 17.9777C12.0245 17.9784 11.3644 17.9845 10.7042 17.9908C10.2845 17.9918 9.86475 17.9925 9.44501 17.9928C9.24779 17.9952 9.05056 17.9976 8.84736 18.0001C7.79848 17.9942 7.10169 17.9889 6.32404 17.2481C5.94865 16.7254 5.95082 16.2718 5.95755 15.6387C5.95863 15.4601 5.95971 15.2815 5.96081 15.0975C5.96361 14.912 5.96641 14.7265 5.96929 14.5353C5.9708 14.3473 5.9723 14.1592 5.97386 13.9654C5.97779 13.5015 5.98328 13.0377 5.99016 12.5738C5.54944 12.5738 5.10872 12.5738 4.65465 12.5738C4.46684 11.9478 4.46684 11.9478 4.65465 11.5722C5.09537 11.5722 5.53609 11.5722 5.99016 11.5722C5.99016 11.3518 5.99016 11.1315 5.99016 10.9044Z" fill="black"/>
<path d="M12 11.2383V15.2448" stroke="black" stroke-width="1.2"/>
<path d="M9.9967 13.2416H14.0032" stroke="black" stroke-width="1.2"/>
</svg>
